# xmcd
#
# Track frame offsets: 
#        150
#        14695
#        26650
#        37427
#        50130
#        62952
#        71747
#        86347
#        98720
#        111327
#        126555
#        137302
#        156702
#        171282
#        183465
#
# Disc length: 2571 seconds
#
# Revision: 1
# Processed by: cddbd v1.5.2PL0 Copyright (c) Steve Scherf et al.
# Submitted via: ExactAudioCopyFreeDBPlugin 1.0
#
DISCID=e80a090f
DTITLE=Merle Haggard - Merle Haggard's Train Whistle Blues (Rounder's 
DTITLE=Classic Railroad Songs Volume 5)
DYEAR=2001
DGENRE=Trains
TTITLE0=My Love Affair with Trains
TTITLE1=Blues for Dixie
TTITLE2=My Rough and Rowdy Ways
TTITLE3=California Blues
TTITLE4=Waitin for a Train
TTITLE5=White Man Singin the Blues
TTITLE6=Train Whistle Blues
TTITLE7=Hobo Meditation
TTITLE8=Hobo Bills Last Ride
TTITLE9=The Silver Ghost
TTITLE10=Lifes Railway to Heaven
TTITLE11=The Coming and the Going of the Trains
TTITLE12=No More Trains to Ride
TTITLE13=The Hobo
TTITLE14=Bonus:  Milwaukee Road 261 at Theresa ,Wisconsin
EXTD=YEAR: 2001 ID3G: 2
EXTT0=
EXTT1=
EXTT2=
EXTT3=
EXTT4=
EXTT5=
EXTT6=
EXTT7=
EXTT8=
EXTT9=
EXTT10=
EXTT11=
EXTT12=
EXTT13=
EXTT14=
PLAYORDER=
